<?xml version="1.0" standalone="no"?>
<!DOCTYPE svg PUBLIC "-//W3C//DTD SVG 20010904//EN"
 "http://www.w3.org/TR/2001/REC-SVG-20010904/DTD/svg10.dtd">
<svg version="1.0" xmlns="http://www.w3.org/2000/svg"
 width="700.000000pt" height="700.000000pt" viewBox="0 0 700.000000 700.000000"
 preserveAspectRatio="xMidYMid meet">
<metadata>
Created by potrace 1.14, written by Peter Selinger 2001-2017
</metadata>
<g transform="translate(0.000000,700.000000) scale(0.100000,-0.100000)"
fill="#000000" stroke="none">
<path d="M905 6990 c-342 -37 -643 -247 -795 -555 -58 -117 -87 -221 -101
-360 -6 -65 -9 -990 -6 -2650 3 -2804 -2 -2574 62 -2756 107 -307 373 -547
703 -634 31 -9 107 -20 167 -26 72 -6 995 -9 2650 -6 2775 3 2562 -1 2736 58
287 97 525 338 621 629 56 168 53 5 53 2810 0 2804 3 2641 -52 2810 -94 286
-338 533 -622 629 -174 59 45 55 -2771 57 -1416 1 -2607 -2 -2645 -6z m2825
-3140 l0 -1420 -210 0 -210 0 0 1413 c0 778 3 1417 7 1420 3 4 98 7 210 7
l203 0 0 -1420z m539 1075 l181 -120 0 -1187 0 -1188 -210 0 -210 0 0 1326 0
1326 29 -19 c16 -10 110 -72 210 -138z m-1289 -1190 l0 -1305 -193 0 -194 0
-6 227 c-9 283 -7 1915 2 2040 l6 93 190 125 c105 68 191 125 193 125 1 0 2
-587 2 -1305z m2220 -367 l0 -938 -205 0 -205 0 0 1075 0 1075 205 -137 205
-136 0 -939z m-2940 132 l0 -1070 -208 0 -208 0 4 933 c3 682 7 935 16 944 9
10 385 260 394 262 1 1 2 -480 2 -1069z m3497 431 l163 -106 0 -697 0 -698
-190 0 -190 0 0 821 0 821 28 -17 c15 -9 100 -65 189 -124z m-4257 -686 l0
-815 -185 0 -185 0 0 698 0 697 178 117 c97 64 180 117 185 117 4 1 7 -366 7
-814z m4420 -1175 l0 -170 -2400 0 -2400 0 0 170 0 170 2400 0 2400 0 0 -170z"/>
</g>
</svg>
